<svg width="21" height="11" viewBox="0 0 21 11" fill="none" xmlns="http://www.w3.org/2000/svg">
<path d="M1.77057 0.805372C1.67039 0.710945 1.55253 0.637126 1.42375 0.588127C1.29496 0.539127 1.15775 0.515908 1.01996 0.519796C0.882178 0.523683 0.746509 0.554601 0.620702 0.610784C0.494896 0.666966 0.381417 0.747313 0.286743 0.847238C0.19207 0.947162 0.118056 1.06471 0.068929 1.19316C0.0198016 1.32161 -0.00347802 1.45846 0.000419756 1.59589C0.00431753 1.73331 0.0353162 1.86863 0.0916458 1.99411C0.147975 2.11958 0.228533 2.23277 0.328719 2.32719L9.77318 11.2237C9.96801 11.4074 10.226 11.5098 10.4941 11.5098C10.7622 11.5098 11.0202 11.4074 11.215 11.2237L20.6605 2.32719C20.7629 2.23339 20.8456 2.12023 20.9037 1.99429C20.9619 1.86835 20.9944 1.73214 20.9993 1.59357C21.0043 1.455 20.9816 1.31684 20.9325 1.1871C20.8834 1.05736 20.809 0.938634 20.7136 0.837821C20.6181 0.737008 20.5036 0.656114 20.3765 0.59984C20.2495 0.543566 20.1125 0.513033 19.9735 0.510014C19.8345 0.506995 19.6963 0.53155 19.5669 0.582254C19.4375 0.632957 19.3195 0.708798 19.2197 0.805372L10.4941 9.02363L1.77057 0.805372Z" fill="black"/>
</svg>
