<svg width="21" height="11" viewBox="0 0 21 11" fill="none" xmlns="http://www.w3.org/2000/svg">
<path d="M1.68725 0.772657C1.59178 0.682439 1.47947 0.61191 1.35674 0.565094C1.23401 0.518278 1.10327 0.496094 0.971965 0.499808C0.840663 0.503523 0.711378 0.533063 0.591492 0.586741C0.471606 0.64042 0.363467 0.717186 0.273249 0.812657C0.183031 0.908128 0.112501 1.02043 0.0656852 1.14316C0.0188697 1.26589 -0.00331434 1.39664 0.000400002 1.52794C0.00411435 1.65924 0.0336542 1.78853 0.0873329 1.90841C0.141012 2.0283 0.217778 2.13644 0.313249 2.22666L9.31325 10.7267C9.49892 10.9022 9.74474 11 10.0002 11C10.2558 11 10.5016 10.9022 10.6872 10.7267L19.6882 2.22666C19.7858 2.13704 19.8646 2.02892 19.92 1.90859C19.9754 1.78827 20.0064 1.65813 20.0111 1.52573C20.0158 1.39334 19.9942 1.26133 19.9474 1.13737C19.9007 1.01341 19.8298 0.899981 19.7388 0.80366C19.6479 0.70734 19.5387 0.630052 19.4176 0.576285C19.2965 0.522519 19.166 0.493347 19.0335 0.490462C18.9011 0.487578 18.7694 0.511039 18.6461 0.559483C18.5228 0.607927 18.4103 0.680388 18.3153 0.772657L10.0002 8.62466L1.68725 0.772657Z" fill="white"/>
</svg>
