<svg width="30" height="30" viewBox="0 0 30 30" fill="none" xmlns="http://www.w3.org/2000/svg">
<g clip-path="url(#clip0_408_29)">
<path d="M27.267 17.0595C27.5454 17.0595 27.8125 17.1701 28.0094 17.367C28.2063 17.5639 28.317 17.831 28.317 18.1095V26.9205C28.3575 28.1385 28.2105 28.938 27.666 29.4405C27.159 29.907 26.424 30.0405 25.4715 29.9895H4.71596C3.74996 29.9415 2.99996 29.55 2.65196 28.7595C2.42096 28.239 2.31296 27.624 2.31296 26.9175V18.108C2.31296 17.8295 2.42359 17.5624 2.6205 17.3655C2.81741 17.1686 3.08448 17.058 3.36296 17.058C3.64144 17.058 3.90851 17.1686 4.10542 17.3655C4.30234 17.5624 4.41296 17.8295 4.41296 18.108V26.9175C4.41296 27.2655 4.45196 27.5475 4.51796 27.7605L4.57196 27.9075L4.56746 27.8925C4.56896 27.873 4.61246 27.8805 4.76546 27.8895H25.5255C25.893 27.9105 26.127 27.8895 26.2095 27.888L26.2155 27.8865C26.196 27.807 26.2335 27.4815 26.2155 26.9535V18.108C26.2155 17.97 26.2427 17.8333 26.2955 17.7058C26.3484 17.5783 26.4259 17.4625 26.5235 17.365C26.6212 17.2675 26.7371 17.1902 26.8647 17.1375C26.9922 17.0848 27.1289 17.0578 27.267 17.058M15.651 0C16.047 0 16.401 0.156 16.734 0.4455L29.6715 12.654C29.7735 12.7483 29.8558 12.8619 29.9136 12.9882C29.9714 13.1145 30.0036 13.251 30.0083 13.3899C30.0129 13.5287 29.99 13.6671 29.9408 13.797C29.8916 13.9269 29.8171 14.0458 29.7217 14.1467C29.6262 14.2476 29.5117 14.3286 29.3847 14.385C29.2577 14.4413 29.1208 14.4719 28.9819 14.4749C28.843 14.478 28.7049 14.4534 28.5756 14.4027C28.4462 14.352 28.3283 14.2761 28.2285 14.1795L15.603 2.2635L1.73696 14.211C1.52611 14.393 1.2516 14.4838 0.973814 14.4634C0.696025 14.443 0.437716 14.3131 0.255711 14.1022C0.0737067 13.8914 -0.017085 13.6169 0.00330957 13.3391C0.0237041 13.0613 0.153614 12.803 0.364461 12.621L14.5335 0.4155L14.6625 0.3195C14.9835 0.1185 15.3045 0.0015 15.6525 0.0015" fill="url(#paint0_linear_408_29)"/>
</g>
<defs>
<linearGradient id="paint0_linear_408_29" x1="15.0047" y1="0" x2="15.0047" y2="29.9997" gradientUnits="userSpaceOnUse">
<stop stop-color="#CA43D6"/>
<stop offset="1" stop-color="#4371E3"/>
</linearGradient>
<clipPath id="clip0_408_29">
<rect width="30" height="30" fill="white"/>
</clipPath>
</defs>
</svg>
