<svg width="33" height="33" viewBox="0 0 33 33" fill="none" xmlns="http://www.w3.org/2000/svg">
<path d="M10.0169 14.2079C9.4975 15.6781 9.49332 17.2811 10.005 18.754C10.5167 20.2269 11.5139 21.4821 12.8329 22.3137C14.1519 23.1452 15.7144 23.5037 17.2639 23.3302C18.8135 23.1568 20.2581 22.4618 21.3606 21.3593C22.4632 20.2567 23.1582 18.8121 23.3316 17.2626C23.505 15.713 23.1466 14.1505 22.315 12.8315C21.4835 11.5125 20.2283 10.5153 18.7554 10.0036C17.2825 9.49194 15.6794 9.49613 14.2092 10.0155M16.5 2.75V5.5M16.5 27.5V30.25M5.5 16.5H2.75M30.25 16.5H27.5M27.1947 5.80663L24.1395 8.59925M5.80525 5.80663L8.8605 8.59925M8.8605 24.1395L5.80525 27.1947M27.1947 27.1934L24.1395 24.1381" stroke="url(#paint0_linear_392_2)" stroke-width="2.2" stroke-linecap="round"/>
<defs>
<linearGradient id="paint0_linear_392_2" x1="16.5" y1="2.75" x2="16.5" y2="30.25" gradientUnits="userSpaceOnUse">
<stop stop-color="#C745D7"/>
<stop offset="1" stop-color="#4D6FE3"/>
</linearGradient>
</defs>
</svg>
