<svg width="33" height="33" viewBox="0 0 33 33" fill="none" xmlns="http://www.w3.org/2000/svg">
<path d="M10.142 27.5179C10.0248 27.45 9.89541 27.4058 9.76117 27.388C9.62692 27.3701 9.49046 27.3788 9.35959 27.4137C9.22871 27.4485 9.10599 27.5088 8.99842 27.5911C8.89085 27.6734 8.80053 27.7761 8.73264 27.8933C8.66475 28.0104 8.6206 28.1399 8.60272 28.2741C8.58484 28.4084 8.59358 28.5448 8.62844 28.6757C8.66329 28.8066 8.72359 28.9293 8.80587 29.0369C8.88816 29.1444 8.99083 29.2347 9.10802 29.3026L10.142 27.5179ZM3.69739 23.8906C3.76246 24.0128 3.85146 24.1206 3.95909 24.2077C4.06672 24.2948 4.19077 24.3593 4.32386 24.3974C4.45694 24.4354 4.59634 24.4463 4.73373 24.4294C4.87112 24.4125 5.0037 24.3681 5.12356 24.2988C5.24342 24.2296 5.34811 24.1369 5.43139 24.0263C5.51467 23.9157 5.57483 23.7895 5.60829 23.6552C5.64176 23.5209 5.64783 23.3812 5.62616 23.2445C5.60448 23.1077 5.55551 22.9768 5.48214 22.8594L3.69739 23.8906ZM29.2188 16.5C29.2188 19.8732 27.8788 23.1083 25.4935 25.4935C23.1083 27.8787 19.8732 29.2188 16.5 29.2188V31.2813C24.6634 31.2813 31.2813 24.6634 31.2813 16.5H29.2188ZM3.78127 16.5C3.78127 13.1268 5.12127 9.89171 7.5065 7.50649C9.89173 5.12126 13.1268 3.78125 16.5 3.78125V1.71875C8.33664 1.71875 1.71877 8.33663 1.71877 16.5H3.78127ZM21.3125 19.5938C19.2156 19.5938 17.2047 18.7608 15.722 17.2781C14.2392 15.7954 13.4063 13.7844 13.4063 11.6875H11.3438C11.3438 14.3314 12.394 16.867 14.2635 18.7365C16.133 20.606 18.6686 21.6563 21.3125 21.6563V19.5938ZM28.0844 15.7699C27.3812 16.9371 26.3881 17.9027 25.2015 18.5727C24.0149 19.2427 22.6752 19.5945 21.3125 19.5938V21.6563C23.0305 21.6572 24.7195 21.2139 26.2157 20.3695C27.7118 19.525 28.9642 18.3081 29.8513 16.8369L28.0844 15.7699ZM13.4063 11.6875C13.4057 10.3248 13.7575 8.98517 14.4275 7.7986C15.0975 6.61203 16.063 5.61889 17.2301 4.91563L16.1631 3.15012C14.692 4.03699 13.4752 5.28914 12.6307 6.78503C11.7863 8.28092 11.343 9.96972 11.3438 11.6875H13.4063ZM16.5 3.78125C16.3606 3.77796 16.2281 3.71963 16.1315 3.619C16.0725 3.56157 16.033 3.487 16.0188 3.40588C16.0133 3.36325 16.016 3.2395 16.1631 3.15012L17.2301 4.91563C17.9218 4.49763 18.1445 3.73175 18.0634 3.1295C17.9781 2.50388 17.4859 1.71875 16.5 1.71875V3.78125ZM29.8513 16.8369C29.7605 16.984 29.6368 16.9868 29.5941 16.9813C29.513 16.967 29.4384 16.9275 29.381 16.8685C29.2804 16.7719 29.2221 16.6394 29.2188 16.5H31.2813C31.2813 15.5141 30.4961 15.0219 29.8705 14.9366C29.2683 14.8555 28.5024 15.0783 28.0844 15.7699L29.8513 16.8369ZM16.5 29.2188C14.2678 29.2224 12.0743 28.6356 10.142 27.5179L9.10802 29.3026C11.3545 30.6024 13.9047 31.285 16.5 31.2813V29.2188ZM5.48214 22.8594C4.36414 20.9267 3.77733 18.7327 3.78127 16.5H1.71877C1.715 19.0949 2.39763 21.6447 3.69739 23.8906L5.48214 22.8594Z" fill="url(#paint0_linear_361_29)"/>
<defs>
<linearGradient id="paint0_linear_361_29" x1="16.5" y1="1.71875" x2="16.5" y2="31.2813" gradientUnits="userSpaceOnUse">
<stop stop-color="#CB43D6"/>
<stop offset="1" stop-color="#4571E3"/>
</linearGradient>
</defs>
</svg>
