<svg width="33" height="33" viewBox="0 0 33 33" fill="none" xmlns="http://www.w3.org/2000/svg">
<path d="M15.4688 5.15625V2.0625C15.4688 1.789 15.5774 1.52669 15.7708 1.3333C15.9642 1.1399 16.2265 1.03125 16.5 1.03125C16.7735 1.03125 17.0358 1.1399 17.2292 1.3333C17.4226 1.52669 17.5312 1.789 17.5312 2.0625V5.15625C17.5312 5.42975 17.4226 5.69206 17.2292 5.88545C17.0358 6.07885 16.7735 6.1875 16.5 6.1875C16.2265 6.1875 15.9642 6.07885 15.7708 5.88545C15.5774 5.69206 15.4688 5.42975 15.4688 5.15625ZM24.75 16.5C24.75 18.1317 24.2661 19.7267 23.3596 21.0835C22.4531 22.4402 21.1646 23.4976 19.6571 24.122C18.1496 24.7464 16.4908 24.9098 14.8905 24.5915C13.2902 24.2732 11.8202 23.4874 10.6664 22.3336C9.51259 21.1798 8.72685 19.7098 8.40852 18.1095C8.09019 16.5092 8.25357 14.8504 8.87799 13.3429C9.50242 11.8354 10.5598 10.5469 11.9165 9.64038C13.2733 8.73385 14.8683 8.25 16.5 8.25C18.6873 8.25239 20.7843 9.12235 22.331 10.669C23.8777 12.2157 24.7476 14.3127 24.75 16.5ZM22.6875 16.5C22.6875 15.2762 22.3246 14.0799 21.6447 13.0624C20.9648 12.0449 19.9985 11.2518 18.8679 10.7835C17.7372 10.3152 16.4931 10.1926 15.2929 10.4314C14.0926 10.6701 12.9901 11.2594 12.1248 12.1248C11.2594 12.9901 10.6701 14.0926 10.4314 15.2929C10.1926 16.4931 10.3152 17.7372 10.7835 18.8679C11.2518 19.9985 12.0449 20.9648 13.0624 21.6447C14.0799 22.3246 15.2762 22.6875 16.5 22.6875C18.1405 22.6858 19.7133 22.0334 20.8733 20.8733C22.0334 19.7133 22.6858 18.1405 22.6875 16.5ZM7.52039 8.97961C7.7139 9.17311 7.97634 9.28182 8.25 9.28182C8.52366 9.28182 8.7861 9.17311 8.97961 8.97961C9.17311 8.7861 9.28182 8.52366 9.28182 8.25C9.28182 7.97634 9.17311 7.7139 8.97961 7.52039L6.91711 5.45789C6.7236 5.26439 6.46116 5.15568 6.1875 5.15568C5.91384 5.15568 5.6514 5.26439 5.45789 5.45789C5.26439 5.6514 5.15568 5.91384 5.15568 6.1875C5.15568 6.46116 5.26439 6.7236 5.45789 6.91711L7.52039 8.97961ZM7.52039 24.0204L5.45789 26.0829C5.26439 26.2764 5.15568 26.5388 5.15568 26.8125C5.15568 27.0862 5.26439 27.3486 5.45789 27.5421C5.6514 27.7356 5.91384 27.8443 6.1875 27.8443C6.46116 27.8443 6.7236 27.7356 6.91711 27.5421L8.97961 25.4796C9.07542 25.3838 9.15143 25.27 9.20328 25.1449C9.25513 25.0197 9.28182 24.8855 9.28182 24.75C9.28182 24.6145 9.25513 24.4803 9.20328 24.3551C9.15143 24.23 9.07542 24.1162 8.97961 24.0204C8.8838 23.9246 8.77005 23.8486 8.64486 23.7967C8.51968 23.7449 8.3855 23.7182 8.25 23.7182C8.1145 23.7182 7.98032 23.7449 7.85514 23.7967C7.72995 23.8486 7.6162 23.9246 7.52039 24.0204ZM24.75 9.28125C24.8855 9.28136 25.0196 9.25477 25.1448 9.20302C25.27 9.15126 25.3838 9.07535 25.4796 8.97961L27.5421 6.91711C27.7356 6.7236 27.8443 6.46116 27.8443 6.1875C27.8443 5.91384 27.7356 5.6514 27.5421 5.45789C27.3486 5.26439 27.0862 5.15568 26.8125 5.15568C26.5388 5.15568 26.2764 5.26439 26.0829 5.45789L24.0204 7.52039C23.876 7.66462 23.7777 7.84844 23.7378 8.04859C23.6979 8.24874 23.7184 8.45622 23.7965 8.64475C23.8746 8.83329 24.0069 8.99441 24.1766 9.10771C24.3464 9.22102 24.5459 9.28141 24.75 9.28125ZM25.4796 24.0204C25.2861 23.8269 25.0237 23.7182 24.75 23.7182C24.4763 23.7182 24.2139 23.8269 24.0204 24.0204C23.8269 24.2139 23.7182 24.4763 23.7182 24.75C23.7182 25.0237 23.8269 25.2861 24.0204 25.4796L26.0829 27.5421C26.1787 27.6379 26.2925 27.7139 26.4176 27.7658C26.5428 27.8176 26.677 27.8443 26.8125 27.8443C26.948 27.8443 27.0822 27.8176 27.2074 27.7658C27.3325 27.7139 27.4463 27.6379 27.5421 27.5421C27.6379 27.4463 27.7139 27.3325 27.7658 27.2074C27.8176 27.0822 27.8443 26.948 27.8443 26.8125C27.8443 26.677 27.8176 26.5428 27.7658 26.4176C27.7139 26.2925 27.6379 26.1787 27.5421 26.0829L25.4796 24.0204ZM6.1875 16.5C6.1875 16.2265 6.07885 15.9642 5.88545 15.7708C5.69206 15.5774 5.42975 15.4688 5.15625 15.4688H2.0625C1.789 15.4688 1.52669 15.5774 1.3333 15.7708C1.1399 15.9642 1.03125 16.2265 1.03125 16.5C1.03125 16.7735 1.1399 17.0358 1.3333 17.2292C1.52669 17.4226 1.789 17.5312 2.0625 17.5312H5.15625C5.42975 17.5312 5.69206 17.4226 5.88545 17.2292C6.07885 17.0358 6.1875 16.7735 6.1875 16.5ZM16.5 26.8125C16.2265 26.8125 15.9642 26.9211 15.7708 27.1145C15.5774 27.3079 15.4688 27.5702 15.4688 27.8438V30.9375C15.4688 31.211 15.5774 31.4733 15.7708 31.6667C15.9642 31.8601 16.2265 31.9688 16.5 31.9688C16.7735 31.9688 17.0358 31.8601 17.2292 31.6667C17.4226 31.4733 17.5312 31.211 17.5312 30.9375V27.8438C17.5312 27.5702 17.4226 27.3079 17.2292 27.1145C17.0358 26.9211 16.7735 26.8125 16.5 26.8125ZM30.9375 15.4688H27.8438C27.5702 15.4688 27.3079 15.5774 27.1145 15.7708C26.9211 15.9642 26.8125 16.2265 26.8125 16.5C26.8125 16.7735 26.9211 17.0358 27.1145 17.2292C27.3079 17.4226 27.5702 17.5312 27.8438 17.5312H30.9375C31.211 17.5312 31.4733 17.4226 31.6667 17.2292C31.8601 17.0358 31.9688 16.7735 31.9688 16.5C31.9688 16.2265 31.8601 15.9642 31.6667 15.7708C31.4733 15.5774 31.211 15.4688 30.9375 15.4688Z" fill="url(#paint0_linear_359_25)"/>
<defs>
<linearGradient id="paint0_linear_359_25" x1="16.5" y1="1.03125" x2="16.5" y2="31.9687" gradientUnits="userSpaceOnUse">
<stop stop-color="#CB43D6"/>
<stop offset="1" stop-color="#4670E3"/>
</linearGradient>
</defs>
</svg>
