<svg width="141" height="141" viewBox="0 0 141 141" fill="none" xmlns="http://www.w3.org/2000/svg">
<path d="M122.375 70.5C122.375 98.1948 122.375 112.042 114.632 120.643C106.888 129.25 94.4218 129.25 69.5 129.25C44.5724 129.25 32.1115 129.25 24.3682 120.643C16.625 112.048 16.625 98.1948 16.625 70.5C16.625 42.8052 16.625 28.9579 24.3682 20.351C32.1115 11.75 44.5782 11.75 69.5 11.75C94.4276 11.75 106.888 11.75 114.632 20.351C119.778 26.0732 121.506 34.1161 122.081 47" stroke="url('#paint0_linear_289_655')" stroke-width="7" stroke-linecap="round"></path>
<path d="M40.125 47C40.125 44.2681 40.125 42.9051 40.4246 41.783C40.8253 40.29 41.6116 38.9286 42.7046 37.8355C43.7977 36.7424 45.1591 35.9561 46.6521 35.5555C47.786 35.25 49.149 35.25 51.875 35.25H87.125C89.8569 35.25 91.2199 35.25 92.342 35.5496C93.835 35.9503 95.1964 36.7366 96.2895 37.8296C97.3826 38.9227 98.1689 40.2841 98.5695 41.7771C98.875 42.911 98.875 44.274 98.875 47C98.875 49.726 98.875 51.0949 98.5754 52.217C98.1747 53.71 97.3884 55.0714 96.2954 56.1645C95.2023 57.2576 93.8409 58.0439 92.3479 58.4445C91.2199 58.75 89.851 58.75 87.125 58.75H51.875C49.1431 58.75 47.7801 58.75 46.658 58.4504C45.165 58.0497 43.8036 57.2634 42.7105 56.1704C41.6174 55.0773 40.8311 53.7159 40.4305 52.2229C40.125 51.089 40.125 49.726 40.125 47Z" stroke="url('#paint1_linear_289_655')" stroke-width="7"></path>
<path d="M46 82.25C49.2447 82.25 51.875 79.6197 51.875 76.375C51.875 73.1303 49.2447 70.5 46 70.5C42.7553 70.5 40.125 73.1303 40.125 76.375C40.125 79.6197 42.7553 82.25 46 82.25Z" fill="#9543D6"></path>
<path d="M46 105.75C49.2447 105.75 51.875 103.12 51.875 99.875C51.875 96.6303 49.2447 94 46 94C42.7553 94 40.125 96.6303 40.125 99.875C40.125 103.12 42.7553 105.75 46 105.75Z" fill="#7D5DDE"></path>
<path d="M69.5 82.25C72.7447 82.25 75.375 79.6197 75.375 76.375C75.375 73.1303 72.7447 70.5 69.5 70.5C66.2553 70.5 63.625 73.1303 63.625 76.375C63.625 79.6197 66.2553 82.25 69.5 82.25Z" fill="#9543D6"></path>
<path d="M69.5 105.75C72.7447 105.75 75.375 103.12 75.375 99.875C75.375 96.6303 72.7447 94 69.5 94C66.2553 94 63.625 96.6303 63.625 99.875C63.625 103.12 66.2553 105.75 69.5 105.75Z" fill="#7D5DDE"></path>
<path d="M93 82.25C96.2447 82.25 98.875 79.6197 98.875 76.375C98.875 73.1303 96.2447 70.5 93 70.5C89.7553 70.5 87.125 73.1303 87.125 76.375C87.125 79.6197 89.7553 82.25 93 82.25Z" fill="#9543D6"></path>
<path d="M93 105.75C96.2447 105.75 98.875 103.12 98.875 99.875C98.875 96.6303 96.2447 94 93 94C89.7553 94 87.125 96.6303 87.125 99.875C87.125 103.12 89.7553 105.75 93 105.75Z" fill="#7D5DDE"></path>
<defs>
<linearGradient id="paint0_linear_289_655" x1="69.5" y1="11.75" x2="69.5" y2="129.25" gradientUnits="userSpaceOnUse">
<stop stop-color="#CA43D6"></stop>
<stop offset="0.5" stop-color="#A64FD9"></stop>
<stop offset="1" stop-color="#4271E3"></stop>
</linearGradient>
<linearGradient id="paint1_linear_289_655" x1="69.5" y1="35.25" x2="69.5" y2="58.75" gradientUnits="userSpaceOnUse">
<stop offset="0.208333" stop-color="#CA42D5"></stop>
<stop offset="1" stop-color="#9543D6"></stop>
</linearGradient>
</defs>
</svg>
